<mxfile host="Electron" modified="2023-05-15T04:58:40.975Z" agent="Mozilla/5.0 (Windows NT 10.0; Win64; x64) AppleWebKit/537.36 (KHTML, like Gecko) draw.io/21.1.2 Chrome/106.0.5249.199 Electron/21.4.3 Safari/537.36" etag="j4Hf0L8OIXUPxjzQ59EN" version="21.1.2" type="device">
  <diagram name="第 1 页" id="8vuUlJdywngtNtnGH9or">
    <mxGraphModel dx="1290" dy="1807" grid="1" gridSize="10" guides="1" tooltips="1" connect="1" arrows="1" fold="1" page="1" pageScale="1" pageWidth="827" pageHeight="1169" math="0" shadow="0">
      <root>
        <mxCell id="0" />
        <mxCell id="1" parent="0" />
        <mxCell id="w_NZ2ozv1N3HypodBnLj-63" style="edgeStyle=none;rounded=0;orthogonalLoop=1;jettySize=auto;html=1;entryX=0.5;entryY=0;entryDx=0;entryDy=0;" edge="1" parent="1" source="w_NZ2ozv1N3HypodBnLj-3" target="w_NZ2ozv1N3HypodBnLj-40">
          <mxGeometry relative="1" as="geometry" />
        </mxCell>
        <mxCell id="w_NZ2ozv1N3HypodBnLj-64" style="edgeStyle=none;rounded=0;orthogonalLoop=1;jettySize=auto;html=1;entryX=0.193;entryY=0.03;entryDx=0;entryDy=0;entryPerimeter=0;" edge="1" parent="1" source="w_NZ2ozv1N3HypodBnLj-3" target="w_NZ2ozv1N3HypodBnLj-43">
          <mxGeometry relative="1" as="geometry" />
        </mxCell>
        <mxCell id="w_NZ2ozv1N3HypodBnLj-3" value="" style="rounded=0;whiteSpace=wrap;html=1;" vertex="1" parent="1">
          <mxGeometry x="224" y="140" width="120" height="60" as="geometry" />
        </mxCell>
        <mxCell id="w_NZ2ozv1N3HypodBnLj-4" value="" style="rounded=0;whiteSpace=wrap;html=1;" vertex="1" parent="1">
          <mxGeometry x="190" y="180" width="50" height="10" as="geometry" />
        </mxCell>
        <mxCell id="w_NZ2ozv1N3HypodBnLj-5" value="" style="rounded=0;whiteSpace=wrap;html=1;" vertex="1" parent="1">
          <mxGeometry x="190" y="150" width="50" height="10" as="geometry" />
        </mxCell>
        <mxCell id="w_NZ2ozv1N3HypodBnLj-61" style="edgeStyle=none;rounded=0;orthogonalLoop=1;jettySize=auto;html=1;entryX=0.75;entryY=0;entryDx=0;entryDy=0;" edge="1" parent="1" source="w_NZ2ozv1N3HypodBnLj-9" target="w_NZ2ozv1N3HypodBnLj-3">
          <mxGeometry relative="1" as="geometry" />
        </mxCell>
        <mxCell id="w_NZ2ozv1N3HypodBnLj-62" style="edgeStyle=none;rounded=0;orthogonalLoop=1;jettySize=auto;html=1;entryX=0.382;entryY=-0.023;entryDx=0;entryDy=0;entryPerimeter=0;" edge="1" parent="1" source="w_NZ2ozv1N3HypodBnLj-9" target="w_NZ2ozv1N3HypodBnLj-37">
          <mxGeometry relative="1" as="geometry" />
        </mxCell>
        <mxCell id="w_NZ2ozv1N3HypodBnLj-9" value="" style="rounded=0;whiteSpace=wrap;html=1;" vertex="1" parent="1">
          <mxGeometry x="375" y="-20" width="70" height="100" as="geometry" />
        </mxCell>
        <mxCell id="w_NZ2ozv1N3HypodBnLj-65" style="edgeStyle=none;rounded=0;orthogonalLoop=1;jettySize=auto;html=1;" edge="1" parent="1" source="w_NZ2ozv1N3HypodBnLj-37" target="w_NZ2ozv1N3HypodBnLj-46">
          <mxGeometry relative="1" as="geometry" />
        </mxCell>
        <mxCell id="w_NZ2ozv1N3HypodBnLj-37" value="Control Object" style="rounded=0;whiteSpace=wrap;html=1;" vertex="1" parent="1">
          <mxGeometry x="479" y="140" width="120" height="60" as="geometry" />
        </mxCell>
        <mxCell id="w_NZ2ozv1N3HypodBnLj-38" value="" style="rounded=0;whiteSpace=wrap;html=1;" vertex="1" parent="1">
          <mxGeometry x="445" y="180" width="50" height="10" as="geometry" />
        </mxCell>
        <mxCell id="w_NZ2ozv1N3HypodBnLj-39" value="" style="rounded=0;whiteSpace=wrap;html=1;" vertex="1" parent="1">
          <mxGeometry x="445" y="150" width="50" height="10" as="geometry" />
        </mxCell>
        <mxCell id="w_NZ2ozv1N3HypodBnLj-40" value="" style="rounded=0;whiteSpace=wrap;html=1;" vertex="1" parent="1">
          <mxGeometry x="144" y="270" width="120" height="60" as="geometry" />
        </mxCell>
        <mxCell id="w_NZ2ozv1N3HypodBnLj-41" value="" style="rounded=0;whiteSpace=wrap;html=1;" vertex="1" parent="1">
          <mxGeometry x="110" y="310" width="50" height="10" as="geometry" />
        </mxCell>
        <mxCell id="w_NZ2ozv1N3HypodBnLj-42" value="" style="rounded=0;whiteSpace=wrap;html=1;" vertex="1" parent="1">
          <mxGeometry x="110" y="280" width="50" height="10" as="geometry" />
        </mxCell>
        <mxCell id="w_NZ2ozv1N3HypodBnLj-66" style="edgeStyle=none;rounded=0;orthogonalLoop=1;jettySize=auto;html=1;entryX=0.25;entryY=0;entryDx=0;entryDy=0;" edge="1" parent="1" source="w_NZ2ozv1N3HypodBnLj-43" target="w_NZ2ozv1N3HypodBnLj-52">
          <mxGeometry relative="1" as="geometry" />
        </mxCell>
        <mxCell id="w_NZ2ozv1N3HypodBnLj-43" value="Account" style="rounded=0;whiteSpace=wrap;html=1;" vertex="1" parent="1">
          <mxGeometry x="344" y="260" width="120" height="60" as="geometry" />
        </mxCell>
        <mxCell id="w_NZ2ozv1N3HypodBnLj-44" value="" style="rounded=0;whiteSpace=wrap;html=1;" vertex="1" parent="1">
          <mxGeometry x="310" y="300" width="50" height="10" as="geometry" />
        </mxCell>
        <mxCell id="w_NZ2ozv1N3HypodBnLj-45" value="" style="rounded=0;whiteSpace=wrap;html=1;" vertex="1" parent="1">
          <mxGeometry x="310" y="270" width="50" height="10" as="geometry" />
        </mxCell>
        <mxCell id="w_NZ2ozv1N3HypodBnLj-46" value="Database" style="rounded=0;whiteSpace=wrap;html=1;" vertex="1" parent="1">
          <mxGeometry x="594" y="270" width="120" height="60" as="geometry" />
        </mxCell>
        <mxCell id="w_NZ2ozv1N3HypodBnLj-47" value="" style="rounded=0;whiteSpace=wrap;html=1;" vertex="1" parent="1">
          <mxGeometry x="560" y="310" width="50" height="10" as="geometry" />
        </mxCell>
        <mxCell id="w_NZ2ozv1N3HypodBnLj-48" value="" style="rounded=0;whiteSpace=wrap;html=1;" vertex="1" parent="1">
          <mxGeometry x="560" y="280" width="50" height="10" as="geometry" />
        </mxCell>
        <mxCell id="w_NZ2ozv1N3HypodBnLj-49" value="Application Server" style="rounded=0;whiteSpace=wrap;html=1;" vertex="1" parent="1">
          <mxGeometry x="214" y="440" width="120" height="60" as="geometry" />
        </mxCell>
        <mxCell id="w_NZ2ozv1N3HypodBnLj-50" value="" style="rounded=0;whiteSpace=wrap;html=1;" vertex="1" parent="1">
          <mxGeometry x="180" y="480" width="50" height="10" as="geometry" />
        </mxCell>
        <mxCell id="w_NZ2ozv1N3HypodBnLj-51" value="" style="rounded=0;whiteSpace=wrap;html=1;" vertex="1" parent="1">
          <mxGeometry x="180" y="450" width="50" height="10" as="geometry" />
        </mxCell>
        <mxCell id="w_NZ2ozv1N3HypodBnLj-67" style="edgeStyle=none;rounded=0;orthogonalLoop=1;jettySize=auto;html=1;entryX=0.65;entryY=-0.077;entryDx=0;entryDy=0;entryPerimeter=0;" edge="1" parent="1" source="w_NZ2ozv1N3HypodBnLj-52" target="w_NZ2ozv1N3HypodBnLj-49">
          <mxGeometry relative="1" as="geometry" />
        </mxCell>
        <mxCell id="w_NZ2ozv1N3HypodBnLj-68" style="edgeStyle=none;rounded=0;orthogonalLoop=1;jettySize=auto;html=1;entryX=0.18;entryY=-0.057;entryDx=0;entryDy=0;entryPerimeter=0;" edge="1" parent="1" source="w_NZ2ozv1N3HypodBnLj-52" target="w_NZ2ozv1N3HypodBnLj-55">
          <mxGeometry relative="1" as="geometry" />
        </mxCell>
        <mxCell id="w_NZ2ozv1N3HypodBnLj-52" value="Owner" style="rounded=0;whiteSpace=wrap;html=1;" vertex="1" parent="1">
          <mxGeometry x="378" y="360" width="120" height="60" as="geometry" />
        </mxCell>
        <mxCell id="w_NZ2ozv1N3HypodBnLj-53" value="" style="rounded=0;whiteSpace=wrap;html=1;" vertex="1" parent="1">
          <mxGeometry x="344" y="400" width="50" height="10" as="geometry" />
        </mxCell>
        <mxCell id="w_NZ2ozv1N3HypodBnLj-54" value="" style="rounded=0;whiteSpace=wrap;html=1;" vertex="1" parent="1">
          <mxGeometry x="344" y="370" width="50" height="10" as="geometry" />
        </mxCell>
        <mxCell id="w_NZ2ozv1N3HypodBnLj-55" value="Transcation&lt;br&gt;Progressing" style="rounded=0;whiteSpace=wrap;html=1;" vertex="1" parent="1">
          <mxGeometry x="584" y="410" width="120" height="60" as="geometry" />
        </mxCell>
        <mxCell id="w_NZ2ozv1N3HypodBnLj-56" value="" style="rounded=0;whiteSpace=wrap;html=1;" vertex="1" parent="1">
          <mxGeometry x="550" y="450" width="50" height="10" as="geometry" />
        </mxCell>
        <mxCell id="w_NZ2ozv1N3HypodBnLj-57" value="" style="rounded=0;whiteSpace=wrap;html=1;" vertex="1" parent="1">
          <mxGeometry x="550" y="420" width="50" height="10" as="geometry" />
        </mxCell>
        <mxCell id="w_NZ2ozv1N3HypodBnLj-58" value="Main" style="text;html=1;align=center;verticalAlign=middle;resizable=0;points=[];autosize=1;strokeColor=none;fillColor=none;" vertex="1" parent="1">
          <mxGeometry x="365" y="-45" width="50" height="30" as="geometry" />
        </mxCell>
        <mxCell id="w_NZ2ozv1N3HypodBnLj-59" value="FormObject" style="text;html=1;align=center;verticalAlign=middle;resizable=0;points=[];autosize=1;strokeColor=none;fillColor=none;" vertex="1" parent="1">
          <mxGeometry x="239" y="150" width="90" height="30" as="geometry" />
        </mxCell>
        <mxCell id="w_NZ2ozv1N3HypodBnLj-70" value="User" style="text;html=1;align=center;verticalAlign=middle;resizable=0;points=[];autosize=1;strokeColor=none;fillColor=none;" vertex="1" parent="1">
          <mxGeometry x="180" y="285" width="50" height="30" as="geometry" />
        </mxCell>
      </root>
    </mxGraphModel>
  </diagram>
</mxfile>
